<mxfile host="65bd71144e" modified="2023-11-15T20:48:40.719Z" agent="Mozilla/5.0 (Windows NT 10.0; Win64; x64) AppleWebKit/537.36 (KHTML, like Gecko) Code/1.84.2 Chrome/114.0.5735.289 Electron/25.9.2 Safari/537.36" etag="oG6rUg_XHAmLzD8rotQJ" version="22.1.1" type="embed">
    <diagram id="qesbigJq5ARRrHLVj5j1" name="Page-1">
        <mxGraphModel dx="1255" dy="-608" grid="1" gridSize="10" guides="1" tooltips="1" connect="1" arrows="1" fold="1" page="1" pageScale="1" pageWidth="850" pageHeight="1100" math="0" shadow="0">
            <root>
                <mxCell id="0"/>
                <mxCell id="1" parent="0"/>
                <mxCell id="32" value="" style="rounded=0;whiteSpace=wrap;html=1;fillColor=none;" parent="1" vertex="1">
                    <mxGeometry x="270" y="1560" width="340" height="240" as="geometry"/>
                </mxCell>
                <mxCell id="31" value="" style="rounded=0;whiteSpace=wrap;html=1;fillColor=none;" parent="1" vertex="1">
                    <mxGeometry x="270" y="1399" width="340" height="161" as="geometry"/>
                </mxCell>
                <mxCell id="2" value="" style="rounded=0;whiteSpace=wrap;html=1;fillColor=none;" parent="1" vertex="1">
                    <mxGeometry x="26.25" y="1560" width="243.75" height="240" as="geometry"/>
                </mxCell>
                <mxCell id="3" value="" style="rounded=0;whiteSpace=wrap;html=1;fillColor=none;" parent="1" vertex="1">
                    <mxGeometry x="26.25" y="1399" width="243.75" height="161" as="geometry"/>
                </mxCell>
                <mxCell id="5" style="shape=partialRectangle;html=1;whiteSpace=wrap;connectable=0;strokeColor=inherit;overflow=hidden;fillColor=none;top=0;left=0;bottom=0;right=0;pointerEvents=1;fontSize=16;" parent="1" vertex="1">
                    <mxGeometry x="350" y="1421" width="290" height="154" as="geometry">
                        <mxRectangle width="290" height="154" as="alternateBounds"/>
                    </mxGeometry>
                </mxCell>
                <mxCell id="6" style="edgeStyle=none;html=1;exitX=0.5;exitY=1;exitDx=0;exitDy=0;entryX=0.5;entryY=0;entryDx=0;entryDy=0;fontSize=18;" parent="1" source="7" target="10" edge="1">
                    <mxGeometry relative="1" as="geometry"/>
                </mxCell>
                <mxCell id="7" value="PreCall(b1, s1)" style="rounded=1;whiteSpace=wrap;html=1;fontSize=18;" parent="1" vertex="1">
                    <mxGeometry x="285.31" y="1410" width="128.12" height="30" as="geometry"/>
                </mxCell>
                <mxCell id="8" value="PostCall(b1, s1)" style="rounded=1;whiteSpace=wrap;html=1;fontSize=18;" parent="1" vertex="1">
                    <mxGeometry x="281.02000000000004" y="1520" width="136.4" height="30" as="geometry"/>
                </mxCell>
                <mxCell id="9" style="edgeStyle=none;html=1;exitX=0.5;exitY=1;exitDx=0;exitDy=0;entryX=0.5;entryY=0;entryDx=0;entryDy=0;fontSize=18;" parent="1" source="10" target="8" edge="1">
                    <mxGeometry relative="1" as="geometry"/>
                </mxCell>
                <mxCell id="10" value="LocalRoutine(s1)" style="rounded=1;whiteSpace=wrap;html=1;fillStyle=solid;fillColor=#B3B3B3;opacity=60;fontSize=18;" parent="1" vertex="1">
                    <mxGeometry x="278.75" y="1463" width="141.25" height="30" as="geometry"/>
                </mxCell>
                <mxCell id="11" style="edgeStyle=none;html=1;exitX=0.5;exitY=1;exitDx=0;exitDy=0;entryX=0.5;entryY=0;entryDx=0;entryDy=0;fontSize=18;" parent="1" source="12" target="15" edge="1">
                    <mxGeometry relative="1" as="geometry"/>
                </mxCell>
                <mxCell id="12" value="PreCall(b1, s2)" style="rounded=1;whiteSpace=wrap;html=1;fontSize=18;" parent="1" vertex="1">
                    <mxGeometry x="465.47" y="1410" width="130" height="30" as="geometry"/>
                </mxCell>
                <mxCell id="13" value="PostCall(b1, s2)" style="rounded=1;whiteSpace=wrap;html=1;fontSize=18;" parent="1" vertex="1">
                    <mxGeometry x="462.5" y="1520" width="135.94" height="30" as="geometry"/>
                </mxCell>
                <mxCell id="14" style="edgeStyle=none;html=1;exitX=0.5;exitY=1;exitDx=0;exitDy=0;entryX=0.5;entryY=0;entryDx=0;entryDy=0;fontSize=18;" parent="1" source="15" target="13" edge="1">
                    <mxGeometry relative="1" as="geometry"/>
                </mxCell>
                <mxCell id="15" value="LocalRoutine(s2)" style="rounded=1;whiteSpace=wrap;html=1;fillStyle=solid;fillColor=#B3B3B3;opacity=60;fontSize=18;" parent="1" vertex="1">
                    <mxGeometry x="460.94" y="1463" width="139.06" height="30" as="geometry"/>
                </mxCell>
                <mxCell id="16" value="&lt;br style=&quot;font-size: 18px;&quot;&gt;&lt;font style=&quot;font-size: 18px;&quot;&gt;^b1:&lt;/font&gt;&lt;br style=&quot;border-color: var(--border-color); font-size: 18px;&quot;&gt;&lt;blockquote style=&quot;border: none; font-size: 18px; margin: 0px 0px 0px 40px; padding: 0px;&quot;&gt;&lt;/blockquote&gt;&lt;span style=&quot;border-color: var(--border-color); font-size: 18px; background-color: initial;&quot;&gt;&amp;nbsp; &amp;nbsp; submit_subroutine() : s1&lt;/span&gt;&lt;br style=&quot;border-color: var(--border-color); font-size: 18px;&quot;&gt;&lt;blockquote style=&quot;border: none; font-size: 18px; margin: 0px 0px 0px 40px; padding: 0px;&quot;&gt;&lt;/blockquote&gt;&lt;span style=&quot;border-color: var(--border-color); font-size: 18px; background-color: initial;&quot;&gt;&amp;nbsp; &amp;nbsp; submit_subroutine() : s2&lt;/span&gt;&lt;br style=&quot;border-color: var(--border-color); font-size: 18px;&quot;&gt;&lt;span style=&quot;font-size: 18px;&quot;&gt;&amp;nbsp; &amp;nbsp; join_routine(s1, s2)&lt;/span&gt;" style="text;html=1;strokeColor=none;fillColor=none;align=left;verticalAlign=middle;whiteSpace=wrap;rounded=0;fontSize=18;" parent="1" vertex="1">
                    <mxGeometry x="33.29" y="1410" width="241.25" height="120" as="geometry"/>
                </mxCell>
                <mxCell id="19" style="edgeStyle=none;html=1;exitX=1;exitY=0.5;exitDx=0;exitDy=0;entryX=0;entryY=0.5;entryDx=0;entryDy=0;" parent="1" source="20" target="22" edge="1">
                    <mxGeometry relative="1" as="geometry"/>
                </mxCell>
                <mxCell id="20" value="PreCall(b2, req)" style="rounded=1;whiteSpace=wrap;html=1;fontSize=18;" parent="1" vertex="1">
                    <mxGeometry x="274.54" y="1571" width="136.88" height="30" as="geometry"/>
                </mxCell>
                <mxCell id="21" style="edgeStyle=none;html=1;exitX=0.451;exitY=0.989;exitDx=0;exitDy=0;exitPerimeter=0;" parent="1" source="22" edge="1">
                    <mxGeometry relative="1" as="geometry">
                        <mxPoint x="520" y="1630" as="targetPoint"/>
                    </mxGeometry>
                </mxCell>
                <mxCell id="22" value="SinglePair(req)" style="rounded=1;whiteSpace=wrap;html=1;fillStyle=solid;fillColor=#B3B3B3;opacity=60;fontSize=18;" parent="1" vertex="1">
                    <mxGeometry x="454.06" y="1571" width="146.25" height="30" as="geometry"/>
                </mxCell>
                <mxCell id="23" style="edgeStyle=none;html=1;entryX=0.452;entryY=-0.038;entryDx=0;entryDy=0;entryPerimeter=0;" parent="1" target="26" edge="1">
                    <mxGeometry relative="1" as="geometry">
                        <mxPoint x="520" y="1660" as="sourcePoint"/>
                        <mxPoint x="520" y="1671" as="targetPoint"/>
                    </mxGeometry>
                </mxCell>
                <mxCell id="24" value="SPCallback(req, cb)" style="rounded=1;whiteSpace=wrap;html=1;fillStyle=solid;fillColor=#B3B3B3;opacity=60;fontSize=18;" parent="1" vertex="1">
                    <mxGeometry x="431.64" y="1630" width="170.94" height="30" as="geometry"/>
                </mxCell>
                <mxCell id="25" style="edgeStyle=none;html=1;exitX=0.453;exitY=0.989;exitDx=0;exitDy=0;exitPerimeter=0;" parent="1" source="26" edge="1">
                    <mxGeometry relative="1" as="geometry">
                        <mxPoint x="520" y="1760" as="targetPoint"/>
                    </mxGeometry>
                </mxCell>
                <mxCell id="26" value="SinglePair(req)" style="rounded=1;whiteSpace=wrap;html=1;fillStyle=solid;fillColor=#B3B3B3;opacity=60;fontSize=18;" parent="1" vertex="1">
                    <mxGeometry x="454.06" y="1690" width="145" height="30" as="geometry"/>
                </mxCell>
                <mxCell id="27" style="edgeStyle=none;html=1;exitX=0;exitY=0.5;exitDx=0;exitDy=0;entryX=1;entryY=0.5;entryDx=0;entryDy=0;" parent="1" source="28" target="29" edge="1">
                    <mxGeometry relative="1" as="geometry"/>
                </mxCell>
                <mxCell id="28" value="SPCallback(req, cb)" style="rounded=1;whiteSpace=wrap;html=1;fillStyle=solid;fillColor=#B3B3B3;opacity=60;fontSize=18;" parent="1" vertex="1">
                    <mxGeometry x="435.78" y="1760" width="162.66" height="30" as="geometry"/>
                </mxCell>
                <mxCell id="29" value="PostCall(b2, req)" style="rounded=1;whiteSpace=wrap;html=1;fontSize=18;" parent="1" vertex="1">
                    <mxGeometry x="276.48" y="1760" width="140.94" height="30" as="geometry"/>
                </mxCell>
                <mxCell id="30" value="&lt;div style=&quot;font-size: 18px;&quot;&gt;&lt;div style=&quot;font-size: 18px;&quot;&gt;&lt;font style=&quot;font-size: 18px;&quot;&gt;^b2:&lt;/font&gt;&lt;/div&gt;&lt;div style=&quot;font-size: 18px;&quot;&gt;&lt;span style=&quot;font-size: 18px;&quot;&gt;&amp;nbsp; &amp;nbsp; run_request() : req&lt;/span&gt;&lt;/div&gt;&lt;div style=&quot;font-size: 18px;&quot;&gt;&lt;span style=&quot;font-size: 18px;&quot;&gt;&lt;br style=&quot;font-size: 18px;&quot;&gt;&lt;/span&gt;&lt;/div&gt;&lt;div style=&quot;font-size: 18px;&quot;&gt;&lt;span style=&quot;font-size: 18px;&quot;&gt;REQUEST req:&lt;/span&gt;&lt;/div&gt;&lt;div style=&quot;font-size: 18px;&quot;&gt;&lt;span style=&quot;font-size: 18px;&quot;&gt;&amp;nbsp; &amp;nbsp; callback: cb&lt;/span&gt;&lt;/div&gt;&lt;div style=&quot;font-size: 18px;&quot;&gt;&lt;span style=&quot;font-size: 18px;&quot;&gt;&amp;nbsp; &amp;nbsp; callback_type: sequential&lt;/span&gt;&lt;/div&gt;&lt;div style=&quot;font-size: 18px;&quot;&gt;&lt;span style=&quot;font-size: 18px;&quot;&gt;&amp;nbsp; &amp;nbsp; num_pairs: 2&lt;/span&gt;&lt;/div&gt;&lt;/div&gt;" style="text;html=1;strokeColor=none;fillColor=none;align=left;verticalAlign=middle;whiteSpace=wrap;rounded=0;fontSize=18;" parent="1" vertex="1">
                    <mxGeometry x="33.290000000000006" y="1575" width="241.25" height="190" as="geometry"/>
                </mxCell>
                <mxCell id="33" value="&lt;font style=&quot;font-size: 18px;&quot;&gt;Host code snippet&lt;/font&gt;" style="rounded=0;whiteSpace=wrap;html=1;fillColor=none;fontStyle=1" parent="1" vertex="1">
                    <mxGeometry x="26.25" y="1350" width="243.75" height="49" as="geometry"/>
                </mxCell>
                <mxCell id="34" value="&lt;font style=&quot;font-size: 18px;&quot;&gt;Task Graph&lt;/font&gt;" style="rounded=0;whiteSpace=wrap;html=1;fillColor=none;fontStyle=1" parent="1" vertex="1">
                    <mxGeometry x="270" y="1350" width="340" height="49" as="geometry"/>
                </mxCell>
            </root>
        </mxGraphModel>
    </diagram>
</mxfile>